<?xml version="1.0" encoding="UTF-8" standalone="no"?>
<!-- Created with Inkscape (http://www.inkscape.org/) -->

<svg
   width="20in"
   height="12in"
   viewBox="0 0 508.00001 304.8"
   version="1.1"
   id="svg1"
   inkscape:version="1.3 (0e150ed, 2023-07-21)"
   sodipodi:docname="speaker.svg"
   xmlns:inkscape="http://www.inkscape.org/namespaces/inkscape"
   xmlns:sodipodi="http://sodipodi.sourceforge.net/DTD/sodipodi-0.dtd"
   xmlns="http://www.w3.org/2000/svg"
   xmlns:svg="http://www.w3.org/2000/svg">
  <sodipodi:namedview
     id="namedview1"
     pagecolor="#ffffff"
     bordercolor="#000000"
     borderopacity="0.25"
     inkscape:showpageshadow="2"
     inkscape:pageopacity="0.0"
     inkscape:pagecheckerboard="0"
     inkscape:deskcolor="#d1d1d1"
     inkscape:document-units="in"
     showgrid="true"
     inkscape:zoom="1.2595945"
     inkscape:cx="162.75079"
     inkscape:cy="168.70508"
     inkscape:window-width="1352"
     inkscape:window-height="768"
     inkscape:window-x="0"
     inkscape:window-y="35"
     inkscape:window-maximized="0"
     inkscape:current-layer="layer1">
    <inkscape:grid
       id="grid1"
       units="in"
       originx="0"
       originy="0"
       spacingx="3.175"
       spacingy="3.175"
       empcolor="#e5bf00"
       empopacity="0.14901961"
       color="#e5bf00"
       opacity="0.10196078"
       empspacing="8"
       dotted="false"
       gridanglex="30"
       gridanglez="30"
       visible="true" />
  </sodipodi:namedview>
  <defs
     id="defs1" />
  <g
     inkscape:groupmode="layer"
     id="layer5"
     inkscape:label="ENGRAVE"
     inkscape:highlight-color="#3af335">
    <path
       id="path7327"
       style="display:inline;opacity:0.86;fill:#888888;fill-opacity:1;stroke:none;stroke-width:0.254;stroke-dasharray:none;stroke-opacity:1"
       d="m 44.569698,6.5875629 c -1.536637,0.06464 -3.072478,0.162876 -4.604905,0.28496 -3.188405,0.254 -6.382796,0.553833 -9.527825,1.136299 -2.72488,0.504649 -5.386264,1.309987 -8.060393,2.0371071 -2.64378,0.813962 -4.661981,1.440089 -7.051503,2.776961 -1.653858,1.19114 -2.312785,5.595668 -3.064117,8.058975 -0.830391,2.72254 -1.249415,5.59592 -1.76411,8.39538 -0.5388031,2.93054 -0.8176371,5.92797 -1.1062101,8.89364 -0.2962065,3.04415 -0.2265285,6.09433 -0.2464155,9.15278 -0.01957,3.07447 0.4271775,6.139914 0.6713485,9.204754 0.2540011,3.1884 0.5191721,6.33576 1.1016391,9.4808 0.504659,2.72489 1.188234,5.36632 1.915336,8.04048 0.602538,2.21751 1.299396,4.77147 2.414007,6.95612 1.951198,1.55309 5.038674,2.07335 7.551435,2.84702 2.720352,0.83756 5.528212,1.37308 8.327654,1.88778 2.930555,0.53879 5.885421,0.96504 8.851086,1.2536 3.044147,0.29622 6.103898,0.46919 9.16236,0.48907 3.074463,0.0196 6.151151,-0.12816 9.216022,-0.37169 3.188423,-0.254 6.383355,-0.55383 9.528374,-1.13629 2.724869,-0.50466 5.385733,-1.31 8.059862,-2.03711 2.049465,-0.56879 4.363476,-1.23272 6.527286,-1.98573 1.653855,-1.19096 2.837553,-6.38638 3.588886,-8.8497 0.830403,-2.72252 1.249396,-5.59643 1.764099,-8.39589 0.538793,-2.93054 0.817637,-5.92799 1.106191,-8.89366 0.296215,-3.04415 0.226548,-6.094334 0.246414,-9.152784 0.01958,-3.07447 -0.128123,-6.15116 -0.37169,-9.21603 -0.254001,-3.18841 -0.8182,-6.32398 -1.400666,-9.46901 -0.504657,-2.72487 -1.188267,-5.36686 -1.915377,-8.04099 -0.3481,-1.280174 -0.65976,-2.476879 -1.180951,-3.696866 C 83.806764,15.065353 83.239122,13.248523 82.549998,12.7 80.59881,11.14692 78.035825,10.905444 75.523064,10.131784 72.802742,9.2942089 69.994311,8.7581929 67.19486,8.2434989 c -2.930566,-0.538804 -5.884859,-0.964512 -8.850525,-1.253086 -3.044137,-0.296205 -6.103908,-0.469189 -9.16236,-0.489076 -1.537251,-0.01 -3.075016,0.02197 -4.611664,0.08681 z m 2.974713,1.134375 C 68.883768,6.8797519 86.865493,23.495925 87.70779,44.835305 88.549995,66.174879 71.933481,84.156699 50.593916,84.998709 29.254537,85.840609 11.273043,69.224159 10.431037,47.884805 9.5891589,26.545635 26.205258,8.5642469 47.544411,7.7219379 Z"
       sodipodi:nodetypes="cssccssscssccssscssccssscsssssssssscccccc"
       inkscape:label="flange indentation" />
  </g>
  <g
     inkscape:groupmode="layer"
     id="layer6"
     inkscape:label="SCORE"
     inkscape:highlight-color="#3537f3" />
  <g
     inkscape:label="CUT"
     inkscape:groupmode="layer"
     id="layer1"
     inkscape:highlight-color="#000000">
    <path
       id="path4260"
       style="display:inline;opacity:1;fill:none;stroke:#000000;stroke-width:0.254"
       inkscape:label="speaker hole"
       d="M 87.694311,44.777745 A 38.625881,38.625881 0 0 1 50.621544,84.896669 38.625881,38.625881 0 0 1 10.50263,47.823895 38.625881,38.625881 0 0 1 47.575397,7.7049799 38.625881,38.625881 0 0 1 87.694311,44.777745 Z" />
  </g>
</svg>
